<?xml version="1.0" encoding="utf-8"?>
<!-- Generator: Adobe Illustrator 27.3.1, SVG Export Plug-In . SVG Version: 6.00 Build 0)  -->
<svg version="1.1" id="_x2018_ëîé_x5F_1" xmlns="http://www.w3.org/2000/svg" xmlns:xlink="http://www.w3.org/1999/xlink"
	 x="0px" y="0px" viewBox="0 0 2862.8 1977.56" style="enable-background:new 0 0 2862.8 1977.56;" xml:space="preserve">
<style type="text/css">
	.st0{fill:#C8DEF4;}
	.st1{fill:#749DD3;}
	.st2{opacity:0.1;fill:#20284E;}
	.st3{fill:#FFFFFF;}
	.st4{opacity:0.05;}
	.st5{fill:#20284E;}
	.st6{fill:#314982;}
	.st7{opacity:0.3;}
	.st8{fill:#211F44;}
	.st9{opacity:0.1;}
	.st10{fill:#262F5F;}
	.st11{opacity:0.5;}
</style>
<g>
	<g>
		<g>
			<g>
				<path class="st0" d="M2491.02,742.31c0.86,5.34,1.65,10.7,2.38,16.08c6.55,49.05,7.43,99.53,4.18,148.6
					c-0.43,6.39-0.92,12.74-1.48,19.07c-3.93,44.34-11.11,87.21-20.4,126.47c-1.72,7.26-3.52,14.51-5.42,21.73
					c-54.78,209.18-181.25,397.18-346.76,535.17c-43.62,36.37-90.36,69.92-139.59,100.47c-14.21,8.82-28.64,17.39-43.26,25.7
					c-26.04,14.84-52.68,28.85-79.86,42.02c-146.72,71.18-308.69,118.11-472.31,136.96c-3.8,0.44-7.6,0.86-11.4,1.27
					c-157.27,16.84-315.75,7.67-463.38-30.95c-5.61-1.46-11.2-2.98-16.79-4.53c-13.91-3.88-27.66-8.06-41.25-12.56
					c-28.72-9.5-56.72-20.37-83.93-32.55c-8.69-3.88-17.31-7.89-25.84-12.05c-56.64-27.51-109.68-60.67-158.6-98.61
					c-39.61-30.73-76.52-64.58-110.46-101.12c-172.83-186.05-268.75-441.53-252.63-706.09c11.2-183.62,70.63-435.84,264.67-507.51
					c208.2-76.89,414.82,67.44,608.47,124.08c186.09,54.43,378.37,58.43,567.07,14.47c202.69-47.22,442.74-198.91,649.45-86.6
					c57.56,31.29,99.22,76.76,128.28,130.33C2466.84,637.64,2482.44,688.93,2491.02,742.31z"/>
			</g>
		</g>
		<g>
			<g>
				<path class="st1" d="M2554.51,1141.16c-0.93,5.32-1.93,10.65-3,15.97c-9.83,48.5-25.48,96.5-44.57,141.82
					c-2.49,5.9-5.02,11.74-7.62,17.55c-18.19,40.63-38.97,78.8-60.57,112.87c-3.95,6.24-7.97,12.43-12.08,18.56
					c-0.05,0.07-0.09,0.14-0.14,0.21c-92.35,138.31-220.68,250.94-366.69,330.33c-0.43,0.23-0.86,0.47-1.3,0.7
					c-10.66,5.79-21.42,11.39-32.27,16.81c-4.36,2.18-8.73,4.33-13.11,6.45c-29.15,14.1-58.89,26.9-89.1,38.36
					c-45.93,17.41-93.36,32.07-141.9,43.99c-7.59,1.87-15.2,3.67-22.84,5.4c-16.32,3.7-32.75,7.09-49.28,10.17
					c-29.45,5.53-59.21,10.07-89.2,13.65c-161.91,19.38-330.34,10.87-491.14-24.74c-3.73-0.83-7.47-1.67-11.19-2.53
					c-154.15-35.42-300.96-95.83-427.89-180.53c-4.83-3.21-9.62-6.47-14.39-9.75c-11.75-8.12-23.26-16.47-34.51-25.05
					c-0.13-0.09-0.25-0.19-0.38-0.29c-4.71-3.59-9.37-7.22-13.98-10.9c-18.99-15.09-37.24-30.86-54.72-47.26
					c-6.95-6.5-13.79-13.11-20.49-19.83c-44.56-44.49-83.87-93.15-117.72-144.98c-0.52-0.8-1.05-1.6-1.56-2.41
					c-17.77-27.4-34.02-55.67-48.72-84.69c-7.44-14.67-14.48-29.52-21.11-44.54c-43.03-97.39-69.29-201.9-77.79-308.47
					c-11.78-147.64,10.51-299.24,69.52-441.41c70.53-169.9,209.04-388.9,415.85-393.29c221.9-4.71,370.08,199.17,534.62,315.92
					c158.13,112.2,338.56,178.76,531.28,198.81c207,21.54,483.42-43.47,642.14,130.17c44.2,48.36,68.72,104.94,78.7,165.07
					C2565.84,1034.33,2563.83,1087.9,2554.51,1141.16z"/>
			</g>
		</g>
		<path class="st2" d="M2426.67,1447.93c-0.05,0.07-0.09,0.14-0.14,0.21c-92.35,138.31-220.68,250.94-366.69,330.33
			c-0.43,0.23-0.86,0.47-1.3,0.7c-10.66,5.79-21.42,11.39-32.27,16.81c-4.36,2.18-8.73,4.33-13.11,6.45
			c-29.15,14.1-58.89,26.9-89.1,38.36c-45.93,17.41-93.36,32.07-141.9,43.99c-7.59,1.87-15.2,3.67-22.84,5.4
			c-16.32,3.7-32.75,7.09-49.28,10.17c-29.45,5.53-59.21,10.07-89.2,13.65c-161.91,19.38-330.34,10.87-491.14-24.74
			c-3.73-0.83-7.47-1.67-11.19-2.53c-154.15-35.42-300.96-95.83-427.89-180.53c-4.83-3.21-9.62-6.47-14.39-9.75
			c-11.75-8.12-23.26-16.47-34.51-25.05c-0.13-0.09-0.25-0.19-0.38-0.29c-4.71-3.59-9.37-7.22-13.98-10.9
			c-18.99-15.09-37.24-30.86-54.72-47.26c-6.95-6.5-13.79-13.11-20.49-19.83c-44.56-44.49-83.87-93.15-117.72-144.98
			c-0.52-0.8-1.05-1.6-1.56-2.41l1993.74,2.14L2426.67,1447.93z"/>
		<g>
			<g>
				<path class="st3" d="M1360.94,1266.84v11.19h-193.19c-51.01,0-98.97,19.86-135.04,55.94c-36.07,36.07-55.94,84.03-55.94,135.05
					c0,27.29-5.34,53.76-15.89,78.69c-10.18,24.08-24.76,45.7-43.32,64.26c-18.57,18.56-40.18,33.15-64.26,43.32
					c-24.93,10.55-51.4,15.89-78.69,15.89H641.61c-0.13-0.1-0.25-0.2-0.38-0.29c-4.71-3.59-9.37-7.22-13.98-10.9H774.6
					c51.01,0,98.97-19.86,135.04-55.94c36.07-36.07,55.94-84.03,55.94-135.04c0-27.29,5.35-53.77,15.89-78.7
					c10.18-24.08,24.76-45.7,43.32-64.26c18.57-18.56,40.19-33.14,64.26-43.32c24.93-10.55,51.41-15.89,78.7-15.89H1360.94z"/>
			</g>
		</g>
		<g>
			<g>
				<path class="st3" d="M1749.16,1266.28c-35.58,0-64.42,22.2-64.42,49.59h128.84C1813.58,1288.49,1784.74,1266.28,1749.16,1266.28
					z"/>
			</g>
		</g>
		<g>
			<g class="st4">
				<g>
					<polygon class="st5" points="1761.57,803.47 2269.08,1315.79 1422.55,1315.79 1422.55,800.27 					"/>
				</g>
			</g>
			<g>
				<g>
					<g>
						<path class="st6" d="M1752.5,1167.03H1110.3c-0.58,0-1.06-0.47-1.06-1.06V819.9c0-0.58,0.47-1.06,1.06-1.06h642.21
							c0.58,0,1.06,0.47,1.06,1.06v346.08C1753.56,1166.55,1753.09,1167.03,1752.5,1167.03z"/>
					</g>
				</g>
				<g class="st7">
					<g>
						<path class="st8" d="M1122.85,1165.65l616.52-333.57c0.44-0.24,0.95,0.11,0.95,0.65v333.57c0,0.4-0.29,0.73-0.66,0.73h-616.52
							C1122.44,1167.03,1122.22,1165.99,1122.85,1165.65z"/>
					</g>
				</g>
				<g>
					<g>
						<path class="st3" d="M1765.75,1230.16h-668.69c-0.58,0-1.06-0.47-1.06-1.06v-61.02c0-0.58,0.47-1.06,1.06-1.06h668.69
							c0.58,0,1.06,0.47,1.06,1.06v61.02C1766.8,1229.69,1766.33,1230.16,1765.75,1230.16z"/>
					</g>
				</g>
				<g>
					<g>
						<path class="st3" d="M1753.56,800.27h-644.32c-7.31,0-13.24,7.02-13.24,15.67v411.54c0,0.85,0.06,1.69,0.17,2.5
							c1.01,7.46,6.48,13.17,13.07,13.17h644.32c6.59,0,12.06-5.7,13.07-13.17c0.11-0.81,0.17-1.65,0.17-2.5V815.94
							C1766.8,807.29,1760.88,800.27,1753.56,800.27z M1122.48,832.27c0-0.36,0.29-0.65,0.65-0.65h616.53
							c0.36,0,0.65,0.29,0.65,0.65v378.89c0,0.36-0.29,0.65-0.65,0.65h-616.53c-0.36,0-0.65-0.29-0.65-0.65V832.27z"/>
					</g>
				</g>
				<g>
					<g>
						<path class="st3" d="M1515.64,1295.03h-168.46c-0.35,0-0.61-0.39-0.53-0.8l5.37-28.29l4.22-22.28
							c0.06-0.3,0.28-0.51,0.53-0.51h150.42c0.26,0,0.49,0.22,0.54,0.53l3.72,22.26l4.73,28.31
							C1516.25,1294.65,1515.99,1295.03,1515.64,1295.03z"/>
					</g>
				</g>
				<g>
					<g>
						<path class="st3" d="M1602.5,1315.88h-331.16c-4.93,0-8.93-4-8.93-8.93v-3c0-4.93,4-8.93,8.93-8.93h331.16
							c4.93,0,8.93,4,8.93,8.93v3C1611.43,1311.88,1607.43,1315.88,1602.5,1315.88z"/>
					</g>
				</g>
				<g class="st9">
					<g>
						<path class="st6" d="M1510.78,1265.94h-158.08c-0.35,0-0.61-0.39-0.53-0.8l4.07-21.47c0.06-0.3,0.28-0.51,0.53-0.51h150.42
							c0.26,0,0.49,0.22,0.54,0.53l3.59,21.48C1511.39,1265.56,1511.13,1265.94,1510.78,1265.94z"/>
					</g>
				</g>
			</g>
		</g>
		<g>
			<g>
				<g>
					
						<ellipse transform="matrix(0.7071 -0.7071 0.7071 0.7071 -291.7983 1299.345)" class="st3" cx="1422.55" cy="1001.9" rx="121.72" ry="121.72"/>
					<path class="st1" d="M1422.55,1133.62c-72.63,0-131.72-59.09-131.72-131.72c0-72.63,59.09-131.72,131.72-131.72
						c72.63,0,131.72,59.09,131.72,131.72C1554.27,1074.53,1495.18,1133.62,1422.55,1133.62z M1422.55,890.19
						c-61.6,0-111.72,50.12-111.72,111.72c0,61.6,50.12,111.72,111.72,111.72c61.6,0,111.72-50.12,111.72-111.72
						C1534.27,940.3,1484.15,890.19,1422.55,890.19z"/>
				</g>
			</g>
			<g>
				<g>
					<path class="st6" d="M1474.21,1063.56c-2.56,0-5.12-0.98-7.07-2.93l-103.32-103.31c-3.91-3.91-3.91-10.24,0-14.14
						c3.91-3.9,10.24-3.91,14.14,0l103.32,103.31c3.91,3.91,3.91,10.24,0,14.14C1479.33,1062.58,1476.77,1063.56,1474.21,1063.56z"
						/>
				</g>
				<g>
					<path class="st6" d="M1370.89,1063.56c-2.56,0-5.12-0.98-7.07-2.93c-3.91-3.91-3.91-10.24,0-14.14l103.32-103.31
						c3.91-3.9,10.24-3.9,14.14,0c3.91,3.91,3.91,10.24,0,14.14l-103.32,103.31C1376.01,1062.58,1373.45,1063.56,1370.89,1063.56z"
						/>
				</g>
			</g>
		</g>
		<g>
			<g>
				<g>
					<g>
						<g>
							<g>
								<path class="st10" d="M791.12,139.92v293.66c0,3.54-3.41,6.42-7.61,6.42s-7.61-2.87-7.61-6.42V139.92
									c0-3.54,3.41-6.42,7.61-6.42S791.12,136.38,791.12,139.92z"/>
							</g>
						</g>
					</g>
				</g>
				<g>
					<g>
						<g>
							<g>
								<path class="st10" d="M791.12,59.84v41.37c0,3.54-3.41,6.42-7.61,6.42s-7.61-2.87-7.61-6.42V59.84
									c0-3.54,3.41-6.42,7.61-6.42S791.12,56.3,791.12,59.84z"/>
							</g>
						</g>
					</g>
				</g>
				<g>
					<g>
						<g>
							<g>
								<polygon class="st10" points="1015.91,741.84 551.1,741.84 571.8,714.75 721.62,518.64 721.62,424.17 845.4,424.17 
									845.4,518.64 890.12,577.17 								"/>
							</g>
						</g>
					</g>
				</g>
			</g>
			<g>
				<g>
					<path class="st8" d="M1015.91,741.84H783.51V133.51c4.2,0,7.61,2.87,7.61,6.42v284.25h54.28v94.47l44.72,58.53L1015.91,741.84z
						"/>
				</g>
			</g>
			<g class="st11">
				<g>
					<path class="st8" d="M845.4,424.17v94.47H721.62c27.71-6.89,47.61-16.65,61.89-27.3c40.26-30.03,35.85-67.17,35.85-67.17H845.4
						z"/>
				</g>
			</g>
			<g class="st11">
				<g>
					<path class="st8" d="M1015.91,741.84H551.1l20.7-27.09c0,0,117.24,5.98,211.71-35.2c46.79-20.4,88.01-52.37,106.61-102.38
						L1015.91,741.84z"/>
				</g>
			</g>
			<g>
				<g>
					<path class="st8" d="M783.51,107.63V53.43c4.2,0,7.61,2.87,7.61,6.42v41.37C791.12,104.76,787.71,107.63,783.51,107.63z"/>
				</g>
			</g>
			<g class="st9">
				<g>
					<path class="st3" d="M1679.28,1405.2l-1295.24-44.38c-7.44-14.66-14.47-29.52-21.11-44.54
						c-43.03-97.39-69.29-201.89-77.79-308.47L551.1,741.84h464.81L1679.28,1405.2z"/>
				</g>
			</g>
		</g>
		<g>
			<g class="st7">
				<g>
					<circle class="st8" cx="2070.04" cy="786.71" r="155.51"/>
				</g>
			</g>
			<g>
				<g>
					<g>
						<circle class="st3" cx="2057.65" cy="778.27" r="143.12"/>
					</g>
				</g>
				<g>
					<g>
						<path class="st6" d="M2057.65,933.98c-41.59,0-80.69-16.2-110.1-45.61c-29.41-29.41-45.61-68.51-45.61-110.1
							c0-41.59,16.2-80.69,45.61-110.1c29.41-29.41,68.51-45.61,110.1-45.61c41.59,0,80.69,16.2,110.1,45.61
							c29.41,29.41,45.61,68.51,45.61,110.1s-16.2,80.69-45.61,110.1C2138.34,917.79,2099.24,933.98,2057.65,933.98z
							 M2057.65,647.74c-34.87,0-67.65,13.58-92.3,38.23c-24.65,24.65-38.23,57.43-38.23,92.3c0,34.87,13.58,67.65,38.23,92.3
							c24.65,24.65,57.43,38.23,92.3,38.23c34.87,0,67.65-13.58,92.3-38.23s38.23-57.43,38.23-92.3c0-34.87-13.58-67.65-38.23-92.3
							C2125.29,661.32,2092.51,647.74,2057.65,647.74z"/>
					</g>
				</g>
				<g>
					<g>
						<path class="st10" d="M2057.65,782.19c-2.16,0-3.92-1.75-3.92-3.92v-98.83c0-2.16,1.75-3.92,3.92-3.92s3.92,1.75,3.92,3.92
							v98.83C2061.56,780.44,2059.81,782.19,2057.65,782.19z"/>
					</g>
				</g>
				<g>
					<g>
						<path class="st10" d="M2002.36,837.47c-1,0-2-0.38-2.77-1.15c-1.53-1.53-1.53-4.01,0-5.54l55.29-55.29
							c1.53-1.53,4.01-1.53,5.54,0c1.53,1.53,1.53,4.01,0,5.54l-55.29,55.29C2004.36,837.09,2003.36,837.47,2002.36,837.47z"/>
					</g>
				</g>
			</g>
		</g>
		<g>
			<g>
				<g>
					<path class="st8" d="M1977.9,1189.28v97.35c0,1.11-0.06,2.2-0.18,3.28c-0.19,1.73-0.54,3.41-1.02,5.04
						c-3.58,12.1-14.78,20.92-28.04,20.92h-46.07c-16.15,0-29.24-13.09-29.24-29.24v-97.35H1977.9z"/>
				</g>
			</g>
			<g>
				<g>
					<path class="st8" d="M1989.43,1217.06c-3.63-1.18-7.5-1.82-11.53-1.82c-1.7,0-3.36,0.11-4.99,0.34
						c-18.26,2.43-32.34,18.07-32.34,37c0,18.93,14.08,34.56,32.34,37c1.57,0.21,3.18,0.33,4.81,0.34h0.18
						c4.02,0,7.9-0.64,11.53-1.82c14.98-4.85,25.81-18.92,25.81-35.51C2015.23,1235.99,2004.41,1221.92,1989.43,1217.06z
						 M1989.43,1277.72c-3.51,1.61-7.41,2.51-11.53,2.51c-1.71,0-3.37-0.16-4.99-0.45c-12.89-2.35-22.66-13.64-22.66-27.2
						c0-13.57,9.77-24.85,22.66-27.2c1.62-0.29,3.28-0.45,4.99-0.45c4.11,0,8.02,0.9,11.53,2.51c9.51,4.37,16.12,13.98,16.12,25.14
						C2005.55,1263.73,1998.94,1273.35,1989.43,1277.72z"/>
				</g>
			</g>
			<g class="st11">
				<g>
					<path class="st8" d="M1977.9,1189.28v97.35c0,1.11-0.06,2.2-0.18,3.28c-0.19,1.73-0.54,3.41-1.02,5.04
						c-3.58,12.1-14.78,20.92-28.04,20.92h-23.04v-126.59H1977.9z"/>
				</g>
			</g>
			<g class="st11">
				<g>
					<path class="st8" d="M1989.43,1217.06v10.38c-3.51-1.61-7.41-2.51-11.53-2.51v-9.69
						C1981.92,1215.25,1985.8,1215.88,1989.43,1217.06z"/>
				</g>
			</g>
			<g class="st11">
				<g>
					<path class="st8" d="M1977.9,1280.23c4.11,0,8.02-0.9,11.53-2.51v10.37c-3.63,1.18-7.5,1.82-11.53,1.82h-0.18
						c0.12-1.07,0.18-2.17,0.18-3.28V1280.23z"/>
				</g>
			</g>
			<g>
				<g>
					<path class="st3" d="M1982.24,1127.43L1982.24,1127.43c0-4.18-3.39-7.58-7.58-7.58h-46.43c-3.65,0-6.6-2.96-6.6-6.6v0
						c0-3.65,2.96-6.6,6.6-6.6h11.26c3.05,0,5.52-2.47,5.52-5.52l0,0c0-3.05-2.47-5.52-5.52-5.52h-43.19
						c-3.05,0-5.52,2.47-5.52,5.52l0,0c0,3.05,2.47,5.52,5.52,5.52h3.87c3.65,0,6.6,2.96,6.6,6.6v0c0,3.65-2.96,6.6-6.6,6.6h-10.14
						c-4.18,0-7.58,3.39-7.58,7.58l0,0c0,4.18,3.39,7.58,7.58,7.58h37.02c3.1,0,5.62,2.52,5.62,5.62l0,0c0,3.1-2.52,5.62-5.62,5.62
						h-28c-4.1,0-7.43,3.33-7.43,7.43v0c0,4.1,3.33,7.43,7.43,7.43h9.19c2.27,0,4.12,1.84,4.12,4.12v3.28
						c0,3.47,2.82,6.29,6.29,6.29l0,0c3.47,0,6.29-2.82,6.29-6.29v-3.28c0-2.27,1.84-4.11,4.11-4.12l27.43-0.01
						c4.09,0,7.41-3.32,7.41-7.41l0,0c0-4.1-3.32-7.42-7.42-7.42c-1.38,0-2.8,0-4.11,0c-3.1,0-5.61-2.51-5.62-5.62v0
						c0-3.11,2.52-5.63,5.62-5.63h22.3C1978.85,1135,1982.24,1131.61,1982.24,1127.43z"/>
				</g>
			</g>
		</g>
		<g>
			<g>
				<g>
					<g>
						<path class="st10" d="M2201.59,1359.42c-47.46,51.82-108.09,34.05-130.12-29.54c-26.18-75.57,29.37-151.66,15.35-228.1
							c-0.31-1.74-0.67-3.47-1.06-5.21c12.24,29.65,38.81,59.55,64.68,90.5C2194.76,1240.08,2237,1296.19,2201.59,1359.42z"/>
					</g>
				</g>
			</g>
			<g>
				<path class="st8" d="M2120.57,1285.48c6.3-62.77-5.58-127.25-33.74-183.69c-0.31-1.74-0.67-3.47-1.06-5.21
					c12.24,29.65,38.81,59.55,64.68,90.5C2150.46,1221.32,2135.35,1254.23,2120.57,1285.48z"/>
			</g>
			<g>
				<g>
					<g>
						<g>
							<g>
								<path class="st10" d="M663.86,1359.42c47.46,51.82,108.09,34.05,130.12-29.53c26.77-77.29-31.94-155.12-14.3-233.32
									C746.47,1177.03,607.77,1259.27,663.86,1359.42z"/>
							</g>
						</g>
					</g>
					<g>
						<path class="st8" d="M744.8,1285.65c-6.3-62.77,5.58-127.25,33.74-183.69c0.31-1.74,0.67-3.47,1.06-5.21
							c-12.24,29.65-38.81,59.55-64.68,90.5C714.9,1221.49,730.01,1254.41,744.8,1285.65z"/>
					</g>
				</g>
				<g>
					<g>
						<g>
							<g>
								<g>
									<path class="st10" d="M2267.25,1352.55c5.33,86.85,77.54,116.96,148.27,72.9c85.97-53.56,90.06-174.22,167.95-235.76
										C2488.84,1241.28,2291.26,1212.45,2267.25,1352.55z"/>
								</g>
							</g>
						</g>
						<g>
							<g>
								<path class="st8" d="M2278.54,1390.73c25.12,47.06,99.04,6.15,123.77-17.99c39.74-38.79,53.63-95.79,64.14-148.33
									c-48.53,8.85-95.25,14.27-131.66,48.56C2311.99,1294.45,2259.39,1354.84,2278.54,1390.73z"/>
							</g>
						</g>
						<g>
							<g>
								<g>
									<path class="st10" d="M2101.16,1345.49c4.93,97.4,131.6,98.99,198.63,72.15c90.68-36.31,104.65-116.38,142.22-196.23
										c16.25-34.53,36.75-66.5,72.29-83.74c37.18-18.04,89.3-9.83,117.14-45.57c23.7-30.42,10.99-71.49,14.16-106.33
										c4.9-53.78,29.35-81.27,63.56-118.85c79.97-87.83-35.59-90.4-95.31-40.08c-23.71,19.97-39.96,45.41-66.46,62.47
										c-38.37,24.7-88.09,32.5-130.26,49.16c-91.47,36.15-179.64,83.73-232.36,169.56
										C2146.81,1169.86,2097.35,1270.54,2101.16,1345.49z"/>
								</g>
							</g>
						</g>
						<g>
							<g>
								<path class="st8" d="M2101.16,1345.49c5.34,105.54,128.12,74.37,196.87,66.96c-11.46-1.35-37.29,1.42-45.57-5.38
									c-17.27-14.19-16.18-77.47-16.03-99c0.56-78.76,26.4-149.21,74.69-210.75c82.9-105.64,226.86-155.8,298.71-266.73
									c-55.04,52.56-93.99,72.26-165.51,97.74c-69.91,24.91-145.53,57.69-201.24,107.96
									C2171.67,1100.72,2096.09,1245.87,2101.16,1345.49z"/>
							</g>
						</g>
					</g>
					<g>
						<g>
							<g>
								<g>
									<path class="st10" d="M595.55,1352.55c-5.33,86.85-77.54,116.96-148.27,72.9c-85.97-53.56-90.06-174.22-167.95-235.76
										C373.96,1241.28,571.55,1212.45,595.55,1352.55z"/>
								</g>
							</g>
						</g>
						<g>
							<g>
								<path class="st8" d="M584.26,1390.73c-25.12,47.06-99.04,6.15-123.77-17.99c-39.74-38.79-53.63-95.79-64.14-148.33
									c48.53,8.85,95.25,14.27,131.66,48.56C550.82,1294.45,603.42,1354.84,584.26,1390.73z"/>
							</g>
						</g>
						<g>
							<g>
								<g>
									<path class="st10" d="M761.64,1345.49c-4.93,97.4-131.6,98.99-198.63,72.15c-90.68-36.31-104.64-116.38-142.22-196.23
										c-16.25-34.53-36.75-66.5-72.29-83.74c-37.18-18.04-89.3-9.83-117.14-45.57c-23.7-30.42-10.99-71.49-14.16-106.33
										c-4.9-53.78-29.35-81.27-63.56-118.85c-79.97-87.83,35.59-90.4,95.31-40.08c23.71,19.97,39.96,45.41,66.46,62.47
										c38.37,24.7,88.09,32.5,130.26,49.16c91.47,36.15,179.64,83.73,232.36,169.56
										C715.99,1169.86,765.46,1270.54,761.64,1345.49z"/>
								</g>
							</g>
						</g>
						<g>
							<g>
								<path class="st8" d="M761.64,1345.49c-5.34,105.54-128.12,74.37-196.87,66.96c11.46-1.35,37.29,1.42,45.57-5.38
									c17.27-14.19,16.18-77.47,16.03-99c-0.56-78.76-26.4-149.21-74.69-210.75c-82.9-105.64-226.86-155.8-298.71-266.73
									c55.04,52.56,93.99,72.26,165.51,97.74c69.91,24.91,145.53,57.69,201.24,107.96
									C691.13,1100.72,766.71,1245.87,761.64,1345.49z"/>
							</g>
						</g>
					</g>
				</g>
			</g>
		</g>
		<g>
			<g>
				<g>
					<path class="st3" d="M900.62,1158.73c12.13,12.13,10.42,33.51,10.42,33.51s-21.38,1.71-33.51-10.42
						c-12.13-12.13-10.42-33.51-10.42-33.51S888.49,1146.59,900.62,1158.73z"/>
				</g>
			</g>
			<g>
				<g>
					<path class="st3" d="M911.13,1210.49c-3.09,0-5.6-2.51-5.6-5.6V996.14c0-3.09,2.51-5.6,5.6-5.6s5.6,2.51,5.6,5.6v208.76
						C916.72,1207.98,914.22,1210.49,911.13,1210.49z"/>
				</g>
			</g>
			<g>
				<g>
					<path class="st8" d="M990.61,1199.91l-16.39,116.31H848.03l-16.38-116.31c-0.35-2.47,1.57-4.67,4.06-4.67h150.84
						C989.04,1195.24,990.95,1197.44,990.61,1199.91z"/>
				</g>
			</g>
			<g>
				<g>
					<path class="st3" d="M939.89,990.19c-12.13,12.13-33.51,10.42-33.51,10.42s-1.71-21.38,10.42-33.51
						c12.13-12.13,33.51-10.42,33.51-10.42S952.02,978.05,939.89,990.19z"/>
				</g>
			</g>
			<g>
				<g>
					<path class="st3" d="M944.72,1080.81c-12.13,12.13-33.51,10.42-33.51,10.42s-1.71-21.38,10.42-33.51
						c12.13-12.13,33.51-10.42,33.51-10.42S956.85,1068.68,944.72,1080.81z"/>
				</g>
			</g>
			<g>
				<g>
					<path class="st3" d="M900.62,1012.41c12.13,12.13,10.42,33.51,10.42,33.51s-21.38,1.71-33.51-10.42
						c-12.13-12.13-10.42-33.51-10.42-33.51S888.49,1000.28,900.62,1012.41z"/>
				</g>
			</g>
			<g>
				<g>
					<path class="st3" d="M944.72,1152.39c-12.13,12.13-33.51,10.42-33.51,10.42s-1.71-21.38,10.42-33.51
						c12.13-12.13,33.51-10.42,33.51-10.42S956.85,1140.25,944.72,1152.39z"/>
				</g>
			</g>
			<g>
				<g>
					<path class="st3" d="M900.62,1083.98c12.13,12.13,10.42,33.51,10.42,33.51s-21.38,1.71-33.51-10.42
						c-12.13-12.13-10.42-33.51-10.42-33.51S888.49,1071.85,900.62,1083.98z"/>
				</g>
			</g>
			<g class="st11">
				<g>
					<path class="st8" d="M990.61,1199.91l-16.39,116.31h-63.09v-120.99h75.42C989.04,1195.24,990.95,1197.44,990.61,1199.91z"/>
				</g>
			</g>
		</g>
		<g>
			<g>
				<g>
					<path class="st10" d="M1963.74,1316.23v131.65H434.51c-27.41-41.98-51.25-86.02-71.39-131.65H1963.74z"/>
				</g>
			</g>
			<g>
				<g>
					<path class="st8" d="M2499.4,1316.23c-18.19,40.63-38.98,78.8-60.57,112.88c-4,6.31-8.07,12.57-12.22,18.77h-462.87v-131.65
						H2499.4z"/>
				</g>
			</g>
			<g>
				<g>
					<g>
						<path class="st10" d="M641.42,1447.87v222.97c-24.05-18.36-46.97-37.78-68.71-58.16c-6.95-6.5-13.78-13.11-20.49-19.82
							v-144.99H641.42z"/>
					</g>
				</g>
				<g>
					<g>
						<path class="st8" d="M690.7,1447.87v258.07c-4.82-3.22-9.62-6.48-14.39-9.76c-11.88-8.2-23.51-16.65-34.88-25.33v-222.97
							H690.7z"/>
					</g>
				</g>
			</g>
			<g>
				<g>
					<g>
						<path class="st10" d="M1710.12,1447.87v452.21c-29.45,5.52-59.22,10.06-89.2,13.65v-465.86H1710.12z"/>
					</g>
				</g>
				<g>
					<g>
						<path class="st8" d="M1759.4,1447.87v442.04c-16.32,3.7-32.75,7.09-49.28,10.18v-452.21H1759.4z"/>
					</g>
				</g>
			</g>
			<g class="st11">
				<g>
					<g>
						<path class="st8" d="M690.7,1447.87v38.72c-17.54,10.5-34.05,22.85-49.28,36.78c-27.63,25.24-51.03,55.62-68.71,89.3
							c-6.95-6.5-13.78-13.11-20.49-19.82v-144.99H690.7z"/>
					</g>
				</g>
			</g>
			<g class="st11">
				<g>
					<g>
						<path class="st8" d="M1620.92,1447.87v212.95c17.61-52.95,48.93-100.65,89.2-137.45c15.23-13.93,31.74-26.28,49.28-36.78
							v-38.72H1620.92z"/>
					</g>
				</g>
			</g>
		</g>
		<g>
			<g class="st7">
				<g>
					<path class="st8" d="M2049.51,1712.42h-95.26c-10.37,0-18.78-8.41-18.78-18.78v-95.26c0-10.37,8.41-18.78,18.78-18.78h95.26
						c10.37,0,18.78,8.41,18.78,18.78v95.26C2068.28,1704.01,2059.88,1712.42,2049.51,1712.42z"/>
				</g>
			</g>
			<g>
				<g>
					<g>
						<path class="st8" d="M2047.68,1579.6h-101.96c-5.67,0-10.25,4.59-10.25,10.25v101.96c0,5.67,4.59,10.25,10.25,10.25h101.96
							c5.67,0,10.25-4.59,10.25-10.25v-101.96C2057.93,1584.2,2053.34,1579.6,2047.68,1579.6z M2037.43,1681.56h-81.45v-81.45h81.45
							V1681.56z"/>
					</g>
				</g>
				<g>
					<g>
						<rect x="1945.72" y="1589.86" class="st10" width="101.96" height="101.96"/>
					</g>
				</g>
				<g>
					<g>
						<circle class="st5" cx="1996.7" cy="1640.83" r="35.96"/>
					</g>
				</g>
				<g class="st11">
					<g>
						<circle class="st8" cx="1981.53" cy="1640.83" r="8.45"/>
					</g>
				</g>
				<g class="st11">
					<g>
						<circle class="st8" cx="2011.88" cy="1640.83" r="8.45"/>
					</g>
				</g>
				<g class="st7">
					<g>
						<path class="st8" d="M2057.93,1589.86v101.96c0,5.67-4.59,10.25-10.25,10.25h-50.98V1579.6h50.98
							C2053.34,1579.6,2057.93,1584.2,2057.93,1589.86z"/>
					</g>
				</g>
			</g>
		</g>
		<g>
			<g>
				<g>
					<polygon class="st3" points="1194.02,1564.24 1182.46,1740.52 1096.08,1696.89 					"/>
				</g>
			</g>
			<g>
				<g>
					<polygon class="st3" points="1194.02,1564.24 1063.34,1687.69 989.03,1681.22 					"/>
				</g>
			</g>
			<g>
				<g>
					<polygon class="st3" points="1194.02,1564.24 1096.08,1696.89 1083.71,1749.58 1063.34,1687.69 					"/>
				</g>
			</g>
			<g class="st9">
				<g>
					<polygon class="st6" points="1194.02,1564.24 1096.08,1696.89 1083.71,1749.58 1063.34,1687.69 					"/>
				</g>
			</g>
		</g>
	</g>
</g>
</svg>
