<?xml version="1.0" encoding="utf-8"?>
<!-- Generator: Adobe Illustrator 27.3.1, SVG Export Plug-In . SVG Version: 6.00 Build 0)  -->
<svg version="1.1" xmlns="http://www.w3.org/2000/svg" xmlns:xlink="http://www.w3.org/1999/xlink" x="0px" y="0px"
	 viewBox="0 0 500 500" style="enable-background:new 0 0 500 500;" xml:space="preserve">
<style type="text/css">
	.st0{fill:#F5F5F5;}
	.st1{fill:#E6E6E6;}
	.st2{fill:#FAFAFA;}
	.st3{fill:#F0F0F0;}
	.st4{fill:#E0E0E0;}
	.st5{opacity:0.4;}
	.st6{display:none;}
	.st7{display:inline;}
	.st8{fill:#407BFF;}
	.st9{opacity:0.9;fill:#FFFFFF;}
	.st10{opacity:0.4;fill:#FFFFFF;}
	.st11{opacity:0.7;fill:#FFFFFF;}
	.st12{opacity:0.4;fill:#263238;}
	.st13{opacity:0.2;fill:#FFFFFF;}
	.st14{opacity:0.7;fill:#407BFF;}
	.st15{fill:#FFFFFF;}
	.st16{fill:#263238;}
</style>
<g id="Background_Complete">
	<g>
		<g>
			<rect x="80.6" y="152.95" class="st0" width="101.71" height="229.45"/>
			<rect x="90.14" y="161" class="st1" width="82.61" height="213.34"/>
			<g>
				<rect x="95.83" y="171" class="st2" width="71.25" height="4.88"/>
				<rect x="95.83" y="182.09" class="st2" width="71.25" height="4.88"/>
				<rect x="95.83" y="193.17" class="st2" width="71.25" height="4.88"/>
				<rect x="95.83" y="204.26" class="st2" width="71.25" height="4.88"/>
				<rect x="95.83" y="215.35" class="st2" width="71.25" height="4.88"/>
				<rect x="95.83" y="226.43" class="st2" width="71.25" height="4.88"/>
				<rect x="95.83" y="237.52" class="st2" width="71.25" height="4.88"/>
				<rect x="95.83" y="248.6" class="st2" width="71.25" height="4.88"/>
				<rect x="95.83" y="259.69" class="st2" width="71.25" height="4.88"/>
				<rect x="95.83" y="270.78" class="st2" width="71.25" height="4.88"/>
				<rect x="95.83" y="281.86" class="st2" width="71.25" height="4.88"/>
				<rect x="95.83" y="292.95" class="st2" width="71.25" height="4.88"/>
				<rect x="95.83" y="304.03" class="st2" width="71.25" height="4.88"/>
				<rect x="95.83" y="315.12" class="st2" width="71.25" height="4.88"/>
				<rect x="95.83" y="326.21" class="st2" width="71.25" height="4.88"/>
				<rect x="95.83" y="337.29" class="st2" width="71.25" height="4.88"/>
				<rect x="95.83" y="348.38" class="st2" width="71.25" height="4.88"/>
				<rect x="95.83" y="359.46" class="st2" width="71.25" height="4.88"/>
			</g>
			
				<rect x="52.46" y="152.95" transform="matrix(-1 -1.224647e-16 1.224647e-16 -1 133.0558 535.3445)" class="st1" width="28.14" height="229.45"/>
			<rect x="88.51" y="149" class="st3" width="79.82" height="3.95"/>
			
				<rect x="66.43" y="149" transform="matrix(-1 -1.224647e-16 1.224647e-16 -1 154.9395 301.9461)" class="st4" width="22.08" height="3.95"/>
			<ellipse class="st0" cx="75.55" cy="162.39" rx="3.05" ry="7.44"/>
			<path class="st0" d="M53.46,162.39c0,4.11,0.92,7.44,2.06,7.44c1.14,0,2.06-3.33,2.06-7.44c0-4.11-0.92-7.44-2.06-7.44
				C54.38,154.95,53.46,158.28,53.46,162.39z"/>
			<ellipse class="st0" cx="75.55" cy="372.95" rx="3.05" ry="7.44"/>
			<path class="st0" d="M53.46,372.95c0,4.11,0.92,7.44,2.06,7.44c1.14,0,2.06-3.33,2.06-7.44s-0.92-7.44-2.06-7.44
				C54.38,365.51,53.46,368.84,53.46,372.95z"/>
		</g>
		<g>
			<rect x="292.64" y="204.12" class="st0" width="79.02" height="178.27"/>
			<rect x="300.05" y="210.38" class="st1" width="64.19" height="165.76"/>
			<g>
				<rect x="304.47" y="218.15" class="st2" width="55.36" height="3.79"/>
				<rect x="304.47" y="226.77" class="st2" width="55.36" height="3.79"/>
				<rect x="304.47" y="235.38" class="st2" width="55.36" height="3.79"/>
				<rect x="304.47" y="243.99" class="st2" width="55.36" height="3.79"/>
				<rect x="304.47" y="252.61" class="st2" width="55.36" height="3.79"/>
				<rect x="304.47" y="261.22" class="st2" width="55.36" height="3.79"/>
				<rect x="304.47" y="269.83" class="st2" width="55.36" height="3.79"/>
				<rect x="304.47" y="278.45" class="st2" width="55.36" height="3.79"/>
				<rect x="304.47" y="287.06" class="st2" width="55.36" height="3.79"/>
				<rect x="304.47" y="295.67" class="st2" width="55.36" height="3.79"/>
				<rect x="304.47" y="304.29" class="st2" width="55.36" height="3.79"/>
				<rect x="304.47" y="312.9" class="st2" width="55.36" height="3.79"/>
				<rect x="304.47" y="321.51" class="st2" width="55.36" height="3.79"/>
				<rect x="304.47" y="330.13" class="st2" width="55.36" height="3.79"/>
				<rect x="304.47" y="338.74" class="st2" width="55.36" height="3.79"/>
				<rect x="304.47" y="347.35" class="st2" width="55.36" height="3.79"/>
				<rect x="304.47" y="355.97" class="st2" width="55.36" height="3.79"/>
				<rect x="304.47" y="364.58" class="st2" width="55.36" height="3.79"/>
			</g>
			
				<rect x="270.77" y="204.12" transform="matrix(-1 -1.224647e-16 1.224647e-16 -1 563.4118 586.5232)" class="st1" width="21.86" height="178.27"/>
			<rect x="298.79" y="201.06" class="st3" width="62.02" height="3.07"/>
			
				<rect x="281.63" y="201.06" transform="matrix(-1 -1.224647e-16 1.224647e-16 -1 580.4145 405.1836)" class="st4" width="17.16" height="3.07"/>
			<path class="st0" d="M286.35,211.46c0,3.19,1.06,5.78,2.37,5.78c1.31,0,2.37-2.59,2.37-5.78c0-3.19-1.06-5.78-2.37-5.78
				C287.41,205.68,286.35,208.27,286.35,211.46z"/>
			<path class="st0" d="M271.55,211.46c0,3.19,0.72,5.78,1.6,5.78c0.88,0,1.6-2.59,1.6-5.78c0-3.19-0.72-5.78-1.6-5.78
				C272.27,205.68,271.55,208.27,271.55,211.46z"/>
			<path class="st0" d="M286.35,375.06c0,3.19,1.06,5.78,2.37,5.78c1.31,0,2.37-2.59,2.37-5.78c0-3.19-1.06-5.78-2.37-5.78
				C287.41,369.28,286.35,371.87,286.35,375.06z"/>
			<path class="st0" d="M271.55,375.06c0,3.19,0.72,5.78,1.6,5.78c0.88,0,1.6-2.59,1.6-5.78c0-3.19-0.72-5.78-1.6-5.78
				C272.27,369.28,271.55,371.87,271.55,375.06z"/>
		</g>
		<path class="st4" d="M288.71,211.96h-46.63c-6.43,0-11.65-5.23-11.65-11.65V184.6c0-5.88-4.78-10.65-10.66-10.65H182.3v-1h37.47
			c6.43,0,11.66,5.23,11.66,11.65v15.71c0,5.88,4.78,10.65,10.65,10.65h46.63V211.96z"/>
		<path class="st4" d="M273.15,375.56h-14.11c-6.43,0-11.66-5.23-11.66-11.66v-91.53c0-5.88-4.78-10.65-10.65-10.65H182.3v-1h54.43
			c6.43,0,11.65,5.23,11.65,11.65v91.53c0,5.88,4.78,10.66,10.66,10.66h14.11V375.56z"/>
		<g>
			<g>
				<rect x="378.85" y="98.71" class="st3" width="52.79" height="5.4"/>
				
					<rect x="364.24" y="98.71" transform="matrix(-1 -1.224647e-16 1.224647e-16 -1 743.0853 202.8275)" class="st4" width="14.61" height="5.4"/>
			</g>
			<g>
				<rect x="378.85" y="85.49" class="st3" width="52.79" height="5.4"/>
				
					<rect x="364.24" y="85.49" transform="matrix(-1 -1.224647e-16 1.224647e-16 -1 743.0853 176.3727)" class="st4" width="14.61" height="5.4"/>
			</g>
			<g>
				<rect x="378.85" y="72.26" class="st3" width="52.79" height="5.4"/>
				
					<rect x="364.24" y="72.26" transform="matrix(-1 -1.224647e-16 1.224647e-16 -1 743.0853 149.9179)" class="st4" width="14.61" height="5.4"/>
			</g>
			<g>
				<rect x="378.85" y="59.03" class="st3" width="52.79" height="5.4"/>
				
					<rect x="364.24" y="59.03" transform="matrix(-1 -1.224647e-16 1.224647e-16 -1 743.0853 123.4632)" class="st4" width="14.61" height="5.4"/>
			</g>
			<g class="st5">
				<rect x="381.83" y="45.59" class="st3" width="44.55" height="53.13"/>
				
					<rect x="369.5" y="45.59" transform="matrix(-1 -1.224647e-16 1.224647e-16 -1 751.325 144.2998)" class="st4" width="12.33" height="53.13"/>
			</g>
		</g>
		<g>
			<g>
				<rect x="256.83" y="186.54" class="st3" width="38.55" height="3.94"/>
				
					<rect x="246.17" y="186.54" transform="matrix(-1 -1.224647e-16 1.224647e-16 -1 503.0029 377.0215)" class="st4" width="10.66" height="3.94"/>
			</g>
			<g>
				<rect x="256.83" y="176.88" class="st3" width="38.55" height="3.94"/>
				
					<rect x="246.17" y="176.88" transform="matrix(-1 -1.224647e-16 1.224647e-16 -1 503.0029 357.7049)" class="st4" width="10.66" height="3.94"/>
			</g>
			<g>
				<rect x="256.83" y="167.22" class="st3" width="38.55" height="3.94"/>
				
					<rect x="246.17" y="167.22" transform="matrix(-1 -1.224647e-16 1.224647e-16 -1 503.0029 338.3883)" class="st4" width="10.66" height="3.94"/>
			</g>
			<g>
				<rect x="256.83" y="157.56" class="st3" width="38.55" height="3.94"/>
				
					<rect x="246.17" y="157.56" transform="matrix(-1 -1.224647e-16 1.224647e-16 -1 503.0029 319.0716)" class="st4" width="10.66" height="3.94"/>
			</g>
			<g class="st5">
				<rect x="259.01" y="147.75" class="st3" width="32.53" height="38.79"/>
				
					<rect x="250.01" y="147.75" transform="matrix(-1 -1.224647e-16 1.224647e-16 -1 509.0193 334.286)" class="st4" width="9" height="38.79"/>
			</g>
		</g>
		<g>
			<g>
				<rect x="423.1" y="311.55" class="st3" width="49.68" height="5.08"/>
				
					<rect x="409.35" y="311.55" transform="matrix(-1 -1.224647e-16 1.224647e-16 -1 832.4523 628.1782)" class="st4" width="13.74" height="5.08"/>
			</g>
			<g>
				<rect x="423.1" y="299.1" class="st3" width="49.68" height="5.08"/>
				
					<rect x="409.35" y="299.1" transform="matrix(-1 -1.224647e-16 1.224647e-16 -1 832.4523 603.283)" class="st4" width="13.74" height="5.08"/>
			</g>
			<g>
				<rect x="423.1" y="286.65" class="st3" width="49.68" height="5.08"/>
				
					<rect x="409.35" y="286.65" transform="matrix(-1 -1.224647e-16 1.224647e-16 -1 832.4523 578.3878)" class="st4" width="13.74" height="5.08"/>
			</g>
			<g>
				<rect x="423.1" y="274.21" class="st3" width="49.68" height="5.08"/>
				
					<rect x="409.35" y="274.21" transform="matrix(-1 -1.224647e-16 1.224647e-16 -1 832.4523 553.4926)" class="st4" width="13.74" height="5.08"/>
			</g>
			<g class="st5">
				<rect x="425.9" y="261.55" class="st3" width="41.93" height="50"/>
				
					<rect x="414.3" y="261.55" transform="matrix(-1 -1.224647e-16 1.224647e-16 -1 840.2063 573.1009)" class="st4" width="11.6" height="50"/>
			</g>
		</g>
	</g>
</g>
<g id="Background_Simple" class="st6">
	<g class="st7">
		<path class="st8" d="M134.58,235.04c55.77-72.22,60.68-190.97,158.99-132.17c50.03,29.92,96.39,7.03,106.64,54.61
			c7.03,32.67-19.81,99.68-40.2,125.23c-30.7,38.49-67.57,34.17-109,32.92c-46.89-1.41-73.13,27.02-116.05,35.24
			c-31.32,6-78.31-21.51-74.38-62.04C65.41,239.18,110.81,265.81,134.58,235.04z"/>
		<path class="st9" d="M134.58,235.04c55.77-72.22,60.68-190.97,158.99-132.17c50.03,29.92,96.39,7.03,106.64,54.61
			c7.03,32.67-19.81,99.68-40.2,125.23c-30.7,38.49-67.57,34.17-109,32.92c-46.89-1.41-73.13,27.02-116.05,35.24
			c-31.32,6-78.31-21.51-74.38-62.04C65.41,239.18,110.81,265.81,134.58,235.04z"/>
	</g>
</g>
<g id="Shadow_1_">
	<ellipse id="_x3C_Path_x3E__367_" class="st0" cx="250" cy="416.24" rx="193.89" ry="11.32"/>
</g>
<g id="Servers">
	<g>
		<g>
			<rect x="318.48" y="115.28" class="st8" width="108.89" height="104.44"/>
			<rect x="318.48" y="115.28" class="st10" width="108.89" height="104.44"/>
			<rect x="353.14" y="115.28" class="st11" width="74.22" height="104.44"/>
			<g>
				<rect x="356.85" y="120.61" class="st8" width="66.8" height="12.93"/>
				<rect x="356.85" y="136.78" class="st8" width="66.8" height="12.93"/>
				<rect x="356.85" y="152.95" class="st8" width="66.8" height="12.93"/>
				<rect x="356.85" y="169.11" class="st8" width="66.8" height="12.93"/>
				<rect x="356.85" y="185.28" class="st8" width="66.8" height="12.93"/>
				<rect x="356.85" y="201.45" class="st8" width="66.8" height="12.93"/>
			</g>
			<g>
				<rect x="322.37" y="120.61" class="st8" width="26.89" height="12.93"/>
				<rect x="322.37" y="136.78" class="st8" width="26.89" height="12.93"/>
				<rect x="322.37" y="152.95" class="st8" width="26.89" height="12.93"/>
				<rect x="322.37" y="169.11" class="st8" width="26.89" height="12.93"/>
				<rect x="322.37" y="185.28" class="st8" width="26.89" height="12.93"/>
				<rect x="322.37" y="201.45" class="st8" width="26.89" height="12.93"/>
			</g>
			<rect x="324.85" y="123.2" class="st12" width="12.62" height="7.76"/>
			<rect x="324.85" y="139.36" class="st12" width="12.62" height="7.76"/>
			<rect x="324.85" y="155.53" class="st12" width="12.62" height="7.76"/>
			<rect x="324.85" y="171.7" class="st12" width="12.62" height="7.76"/>
			<rect x="324.85" y="187.87" class="st12" width="12.62" height="7.76"/>
			<rect x="324.85" y="204.04" class="st12" width="12.62" height="7.76"/>
			<rect x="418.82" y="122.29" class="st11" width="1.56" height="9.56"/>
			<rect x="415.82" y="122.29" class="st11" width="1.56" height="9.56"/>
			<rect x="412.82" y="122.29" class="st11" width="1.56" height="9.56"/>
			<rect x="409.82" y="122.29" class="st11" width="1.56" height="9.56"/>
			<rect x="406.82" y="122.29" class="st11" width="1.56" height="9.56"/>
			<rect x="418.82" y="138.46" class="st11" width="1.56" height="9.56"/>
			<rect x="415.82" y="138.46" class="st11" width="1.56" height="9.56"/>
			<rect x="412.82" y="138.46" class="st11" width="1.56" height="9.56"/>
			<rect x="409.82" y="138.46" class="st11" width="1.56" height="9.56"/>
			<rect x="406.82" y="138.46" class="st11" width="1.56" height="9.56"/>
			<rect x="418.82" y="154.63" class="st11" width="1.56" height="9.56"/>
			<rect x="415.82" y="154.63" class="st11" width="1.56" height="9.56"/>
			<rect x="412.82" y="154.63" class="st11" width="1.56" height="9.56"/>
			<rect x="409.82" y="154.63" class="st11" width="1.56" height="9.56"/>
			<rect x="406.82" y="154.63" class="st11" width="1.56" height="9.56"/>
			<rect x="418.82" y="170.8" class="st11" width="1.56" height="9.56"/>
			<rect x="415.82" y="170.8" class="st11" width="1.56" height="9.56"/>
			<rect x="412.82" y="170.8" class="st11" width="1.56" height="9.56"/>
			<rect x="409.82" y="170.8" class="st11" width="1.56" height="9.56"/>
			<rect x="406.82" y="170.8" class="st11" width="1.56" height="9.56"/>
			<rect x="418.82" y="186.97" class="st11" width="1.56" height="9.56"/>
			<rect x="415.82" y="186.97" class="st11" width="1.56" height="9.56"/>
			<rect x="412.82" y="186.97" class="st11" width="1.56" height="9.56"/>
			<rect x="409.82" y="186.97" class="st11" width="1.56" height="9.56"/>
			<rect x="406.82" y="186.97" class="st11" width="1.56" height="9.56"/>
			<rect x="418.82" y="203.14" class="st11" width="1.56" height="9.56"/>
			<rect x="415.82" y="203.14" class="st11" width="1.56" height="9.56"/>
			<rect x="412.82" y="203.14" class="st11" width="1.56" height="9.56"/>
			<rect x="409.82" y="203.14" class="st11" width="1.56" height="9.56"/>
			<rect x="406.82" y="203.14" class="st11" width="1.56" height="9.56"/>
			<path class="st13" d="M381.44,207.92c0-0.88,0.71-1.59,1.59-1.59s1.59,0.71,1.59,1.59c0,0.88-0.71,1.59-1.59,1.59
				S381.44,208.8,381.44,207.92z"/>
			<path class="st13" d="M371.44,207.92c0-0.88,0.71-1.59,1.59-1.59s1.59,0.71,1.59,1.59c0,0.88-0.71,1.59-1.59,1.59
				S371.44,208.8,371.44,207.92z"/>
			<path class="st10" d="M361.44,207.92c0-0.88,0.71-1.59,1.59-1.59s1.59,0.71,1.59,1.59c0,0.88-0.71,1.59-1.59,1.59
				S361.44,208.8,361.44,207.92z"/>
			<path class="st10" d="M381.44,191.75c0-0.88,0.71-1.59,1.59-1.59s1.59,0.71,1.59,1.59s-0.71,1.59-1.59,1.59
				S381.44,192.63,381.44,191.75z"/>
			<path class="st13" d="M371.44,191.75c0-0.88,0.71-1.59,1.59-1.59s1.59,0.71,1.59,1.59s-0.71,1.59-1.59,1.59
				S371.44,192.63,371.44,191.75z"/>
			<path class="st10" d="M361.44,191.75c0-0.88,0.71-1.59,1.59-1.59s1.59,0.71,1.59,1.59s-0.71,1.59-1.59,1.59
				S361.44,192.63,361.44,191.75z"/>
			<path class="st13" d="M381.44,175.58c0-0.88,0.71-1.59,1.59-1.59s1.59,0.71,1.59,1.59c0,0.88-0.71,1.59-1.59,1.59
				S381.44,176.46,381.44,175.58z"/>
			<path class="st10" d="M371.44,175.58c0-0.88,0.71-1.59,1.59-1.59s1.59,0.71,1.59,1.59c0,0.88-0.71,1.59-1.59,1.59
				S371.44,176.46,371.44,175.58z"/>
			<path class="st13" d="M361.44,175.58c0-0.88,0.71-1.59,1.59-1.59s1.59,0.71,1.59,1.59c0,0.88-0.71,1.59-1.59,1.59
				S361.44,176.46,361.44,175.58z"/>
			<path class="st10" d="M381.44,159.41c0-0.88,0.71-1.59,1.59-1.59s1.59,0.71,1.59,1.59c0,0.88-0.71,1.59-1.59,1.59
				S381.44,160.29,381.44,159.41z"/>
			<path class="st13" d="M371.44,159.41c0-0.88,0.71-1.59,1.59-1.59s1.59,0.71,1.59,1.59c0,0.88-0.71,1.59-1.59,1.59
				S371.44,160.29,371.44,159.41z"/>
			<path class="st13" d="M361.44,159.41c0-0.88,0.71-1.59,1.59-1.59s1.59,0.71,1.59,1.59c0,0.88-0.71,1.59-1.59,1.59
				S361.44,160.29,361.44,159.41z"/>
			<path class="st13" d="M381.44,143.24c0-0.88,0.71-1.59,1.59-1.59s1.59,0.71,1.59,1.59c0,0.88-0.71,1.59-1.59,1.59
				S381.44,144.12,381.44,143.24z"/>
			<path class="st10" d="M371.44,143.24c0-0.88,0.71-1.59,1.59-1.59s1.59,0.71,1.59,1.59c0,0.88-0.71,1.59-1.59,1.59
				S371.44,144.12,371.44,143.24z"/>
			<path class="st10" d="M361.44,143.24c0-0.88,0.71-1.59,1.59-1.59s1.59,0.71,1.59,1.59c0,0.88-0.71,1.59-1.59,1.59
				S361.44,144.12,361.44,143.24z"/>
			<path class="st10" d="M381.44,127.08c0-0.88,0.71-1.59,1.59-1.59s1.59,0.71,1.59,1.59s-0.71,1.59-1.59,1.59
				S381.44,127.95,381.44,127.08z"/>
			<path class="st13" d="M371.44,127.08c0-0.88,0.71-1.59,1.59-1.59s1.59,0.71,1.59,1.59s-0.71,1.59-1.59,1.59
				S371.44,127.95,371.44,127.08z"/>
			<path class="st10" d="M361.44,127.08c0-0.88,0.71-1.59,1.59-1.59s1.59,0.71,1.59,1.59s-0.71,1.59-1.59,1.59
				S361.44,127.95,361.44,127.08z"/>
		</g>
		<g>
			<rect x="117.75" y="311.79" class="st8" width="108.89" height="104.44"/>
			<rect x="117.75" y="311.79" class="st10" width="108.89" height="104.44"/>
			<rect x="152.41" y="311.79" class="st11" width="74.22" height="104.44"/>
			<g>
				<rect x="156.12" y="317.13" class="st8" width="66.8" height="12.93"/>
				<rect x="156.12" y="333.3" class="st8" width="66.8" height="12.93"/>
				<rect x="156.12" y="349.46" class="st8" width="66.8" height="12.93"/>
				<rect x="156.12" y="365.63" class="st8" width="66.8" height="12.93"/>
				<rect x="156.12" y="381.8" class="st8" width="66.8" height="12.93"/>
				<rect x="156.12" y="397.97" class="st8" width="66.8" height="12.93"/>
			</g>
			<g>
				<rect x="121.64" y="317.13" class="st8" width="26.89" height="12.93"/>
				<rect x="121.64" y="333.3" class="st8" width="26.89" height="12.93"/>
				<rect x="121.64" y="349.46" class="st8" width="26.89" height="12.93"/>
				<rect x="121.64" y="365.63" class="st8" width="26.89" height="12.93"/>
				<rect x="121.64" y="381.8" class="st8" width="26.89" height="12.93"/>
				<rect x="121.64" y="397.97" class="st8" width="26.89" height="12.93"/>
			</g>
			<rect x="124.12" y="319.71" class="st12" width="12.62" height="7.76"/>
			<rect x="124.12" y="335.88" class="st12" width="12.62" height="7.76"/>
			<rect x="124.12" y="352.05" class="st12" width="12.62" height="7.76"/>
			<rect x="124.12" y="368.22" class="st12" width="12.62" height="7.76"/>
			<rect x="124.12" y="384.39" class="st12" width="12.62" height="7.76"/>
			<rect x="124.12" y="400.56" class="st12" width="12.62" height="7.76"/>
			<rect x="218.09" y="318.81" class="st11" width="1.56" height="9.56"/>
			<rect x="215.09" y="318.81" class="st11" width="1.56" height="9.56"/>
			<rect x="212.09" y="318.81" class="st11" width="1.56" height="9.56"/>
			<rect x="209.09" y="318.81" class="st11" width="1.56" height="9.56"/>
			<rect x="206.09" y="318.81" class="st11" width="1.56" height="9.56"/>
			<rect x="218.09" y="334.98" class="st11" width="1.56" height="9.56"/>
			<rect x="215.09" y="334.98" class="st11" width="1.56" height="9.56"/>
			<rect x="212.09" y="334.98" class="st11" width="1.56" height="9.56"/>
			<rect x="209.09" y="334.98" class="st11" width="1.56" height="9.56"/>
			<rect x="206.09" y="334.98" class="st11" width="1.56" height="9.56"/>
			<rect x="218.09" y="351.15" class="st11" width="1.56" height="9.56"/>
			<rect x="215.09" y="351.15" class="st11" width="1.56" height="9.56"/>
			<rect x="212.09" y="351.15" class="st11" width="1.56" height="9.56"/>
			<rect x="209.09" y="351.15" class="st11" width="1.56" height="9.56"/>
			<rect x="206.09" y="351.15" class="st11" width="1.56" height="9.56"/>
			<rect x="218.09" y="367.32" class="st11" width="1.56" height="9.56"/>
			<rect x="215.09" y="367.32" class="st11" width="1.56" height="9.56"/>
			<rect x="212.09" y="367.32" class="st11" width="1.56" height="9.56"/>
			<rect x="209.09" y="367.32" class="st11" width="1.56" height="9.56"/>
			<rect x="206.09" y="367.32" class="st11" width="1.56" height="9.56"/>
			<rect x="218.09" y="383.49" class="st11" width="1.56" height="9.56"/>
			<rect x="215.09" y="383.49" class="st11" width="1.56" height="9.56"/>
			<rect x="212.09" y="383.49" class="st11" width="1.56" height="9.56"/>
			<rect x="209.09" y="383.49" class="st11" width="1.56" height="9.56"/>
			<rect x="206.09" y="383.49" class="st11" width="1.56" height="9.56"/>
			<rect x="218.09" y="399.65" class="st11" width="1.56" height="9.56"/>
			<rect x="215.09" y="399.65" class="st11" width="1.56" height="9.56"/>
			<rect x="212.09" y="399.65" class="st11" width="1.56" height="9.56"/>
			<rect x="209.09" y="399.65" class="st11" width="1.56" height="9.56"/>
			<rect x="206.09" y="399.65" class="st11" width="1.56" height="9.56"/>
			<path class="st13" d="M163.89,323.59c0,0.88-0.71,1.59-1.59,1.59c-0.88,0-1.59-0.71-1.59-1.59s0.71-1.59,1.59-1.59
				C163.18,322.01,163.89,322.72,163.89,323.59z"/>
			<path class="st13" d="M173.89,323.59c0,0.88-0.71,1.59-1.59,1.59c-0.88,0-1.59-0.71-1.59-1.59s0.71-1.59,1.59-1.59
				C173.18,322.01,173.89,322.72,173.89,323.59z"/>
			<path class="st10" d="M183.89,323.59c0,0.88-0.71,1.59-1.59,1.59c-0.88,0-1.59-0.71-1.59-1.59s0.71-1.59,1.59-1.59
				C183.18,322.01,183.89,322.72,183.89,323.59z"/>
			<path class="st10" d="M163.89,339.76c0,0.88-0.71,1.59-1.59,1.59c-0.88,0-1.59-0.71-1.59-1.59s0.71-1.59,1.59-1.59
				C163.18,338.17,163.89,338.89,163.89,339.76z"/>
			<path class="st13" d="M173.89,339.76c0,0.88-0.71,1.59-1.59,1.59c-0.88,0-1.59-0.71-1.59-1.59s0.71-1.59,1.59-1.59
				C173.18,338.17,173.89,338.89,173.89,339.76z"/>
			<path class="st10" d="M183.89,339.76c0,0.88-0.71,1.59-1.59,1.59c-0.88,0-1.59-0.71-1.59-1.59s0.71-1.59,1.59-1.59
				C183.18,338.17,183.89,338.89,183.89,339.76z"/>
			<path class="st13" d="M163.89,355.93c0,0.88-0.71,1.59-1.59,1.59c-0.88,0-1.59-0.71-1.59-1.59c0-0.88,0.71-1.59,1.59-1.59
				C163.18,354.34,163.89,355.05,163.89,355.93z"/>
			<path class="st10" d="M173.89,355.93c0,0.88-0.71,1.59-1.59,1.59c-0.88,0-1.59-0.71-1.59-1.59c0-0.88,0.71-1.59,1.59-1.59
				C173.18,354.34,173.89,355.05,173.89,355.93z"/>
			<path class="st13" d="M183.89,355.93c0,0.88-0.71,1.59-1.59,1.59c-0.88,0-1.59-0.71-1.59-1.59c0-0.88,0.71-1.59,1.59-1.59
				C183.18,354.34,183.89,355.05,183.89,355.93z"/>
			<path class="st10" d="M163.89,372.1c0,0.88-0.71,1.59-1.59,1.59c-0.88,0-1.59-0.71-1.59-1.59s0.71-1.59,1.59-1.59
				C163.18,370.51,163.89,371.22,163.89,372.1z"/>
			<path class="st13" d="M173.89,372.1c0,0.88-0.71,1.59-1.59,1.59c-0.88,0-1.59-0.71-1.59-1.59s0.71-1.59,1.59-1.59
				C173.18,370.51,173.89,371.22,173.89,372.1z"/>
			<path class="st13" d="M183.89,372.1c0,0.88-0.71,1.59-1.59,1.59c-0.88,0-1.59-0.71-1.59-1.59s0.71-1.59,1.59-1.59
				C183.18,370.51,183.89,371.22,183.89,372.1z"/>
			<path class="st13" d="M163.89,388.27c0,0.88-0.71,1.59-1.59,1.59c-0.88,0-1.59-0.71-1.59-1.59c0-0.88,0.71-1.59,1.59-1.59
				C163.18,386.68,163.89,387.39,163.89,388.27z"/>
			<path class="st10" d="M173.89,388.27c0,0.88-0.71,1.59-1.59,1.59c-0.88,0-1.59-0.71-1.59-1.59c0-0.88,0.71-1.59,1.59-1.59
				C173.18,386.68,173.89,387.39,173.89,388.27z"/>
			<path class="st10" d="M183.89,388.27c0,0.88-0.71,1.59-1.59,1.59c-0.88,0-1.59-0.71-1.59-1.59c0-0.88,0.71-1.59,1.59-1.59
				C183.18,386.68,183.89,387.39,183.89,388.27z"/>
			<path class="st10" d="M163.89,404.44c0,0.88-0.71,1.59-1.59,1.59c-0.88,0-1.59-0.71-1.59-1.59s0.71-1.59,1.59-1.59
				C163.18,402.85,163.89,403.56,163.89,404.44z"/>
			<path class="st13" d="M173.89,404.44c0,0.88-0.71,1.59-1.59,1.59c-0.88,0-1.59-0.71-1.59-1.59s0.71-1.59,1.59-1.59
				C173.18,402.85,173.89,403.56,173.89,404.44z"/>
			<path class="st10" d="M183.89,404.44c0,0.88-0.71,1.59-1.59,1.59c-0.88,0-1.59-0.71-1.59-1.59s0.71-1.59,1.59-1.59
				C183.18,402.85,183.89,403.56,183.89,404.44z"/>
		</g>
		<rect x="384.51" y="219.72" class="st8" width="2" height="91.62"/>
		<path class="st14" d="M327.33,365.02h-11.2v-2h11.2V365.02z M304.13,365.02h-12v-2h12V365.02z M280.13,365.02h-12v-2h12V365.02z
			 M256.13,365.02h-12v-2h12V365.02z"/>
		<g>
			<path class="st8" d="M352.67,308.07l-14.43,70.78c-0.69,3.39,2.55,6.26,5.84,5.17l68.51-22.89c3.29-1.1,4.15-5.34,1.56-7.64
				l-54.08-47.89C357.47,303.3,353.37,304.67,352.67,308.07z"/>
			<path class="st15" d="M346.73,372.75l11.36-55.74c0.28-1.38,1.96-1.94,3.01-1.01l42.59,37.71c1.06,0.94,0.7,2.66-0.63,3.11
				l-53.95,18.03C347.77,375.3,346.45,374.13,346.73,372.75z"/>
			<g>
				<path class="st16" d="M360.49,333.66l1.57,4.71c0.03,0.08,0.06,0.15,0.09,0.22l5.34,11.21c0.43,0.9,1.46,1.34,2.4,1.02l2.09-0.7
					c0.94-0.31,1.5-1.28,1.3-2.25l-2.44-12.18c-0.02-0.08-0.04-0.16-0.06-0.24l-1.57-4.71c-0.34-1.03-1.46-1.59-2.49-1.24
					l-4.98,1.67C360.7,331.52,360.15,332.63,360.49,333.66z"/>
			</g>
			<path class="st16" d="M376.36,355.47c0.62,1.85-0.38,3.86-2.23,4.48c-1.85,0.62-3.86-0.38-4.48-2.23
				c-0.62-1.85,0.38-3.86,2.23-4.48C373.74,352.61,375.74,353.61,376.36,355.47z"/>
		</g>
	</g>
</g>
<g id="Character_1_">
</g>
<g id="_x35_04_Error">
</g>
<g id="Gateway_Timeout">
</g>
</svg>
